<mxfile host="app.diagrams.net" modified="2024-05-23T20:01:07.362Z" agent="Mozilla/5.0 (Windows NT 10.0; Win64; x64; rv:126.0) Gecko/20100101 Firefox/126.0" etag="OL1olhWtgcGDOFLHXSOd" version="24.4.6" type="device">
  <diagram id="C5RBs43oDa-KdzZeNtuy" name="Page-1">
    <mxGraphModel dx="2261" dy="726" grid="1" gridSize="10" guides="1" tooltips="1" connect="1" arrows="1" fold="1" page="1" pageScale="1" pageWidth="827" pageHeight="1169" math="0" shadow="0">
      <root>
        <mxCell id="WIyWlLk6GJQsqaUBKTNV-0" />
        <mxCell id="WIyWlLk6GJQsqaUBKTNV-1" parent="WIyWlLk6GJQsqaUBKTNV-0" />
        <mxCell id="2b8GEMpb_hgOxrl0ff7X-4" value="&lt;p style=&quot;margin:0px;margin-top:4px;text-align:center;&quot;&gt;&lt;i&gt;&amp;lt;&amp;lt;Interface&amp;gt;&amp;gt;&lt;/i&gt;&lt;br&gt;&lt;b&gt;Upgradable&lt;/b&gt;&lt;/p&gt;&lt;hr size=&quot;1&quot; style=&quot;border-style:solid;&quot;&gt;&lt;p style=&quot;margin:0px;margin-left:4px;&quot;&gt;+ Level: Integer&lt;br&gt;+ Cost: Integer&lt;br&gt;&lt;/p&gt;&lt;hr size=&quot;1&quot; style=&quot;border-style:solid;&quot;&gt;&lt;p style=&quot;margin:0px;margin-left:4px;&quot;&gt;+ Levelup(): void&lt;br&gt;&lt;/p&gt;" style="verticalAlign=top;align=left;overflow=fill;html=1;whiteSpace=wrap;" parent="WIyWlLk6GJQsqaUBKTNV-1" vertex="1">
          <mxGeometry x="330" y="20" width="190" height="140" as="geometry" />
        </mxCell>
        <mxCell id="2b8GEMpb_hgOxrl0ff7X-5" value="ShipCrew" style="swimlane;fontStyle=1;align=center;verticalAlign=top;childLayout=stackLayout;horizontal=1;startSize=26;horizontalStack=0;resizeParent=1;resizeParentMax=0;resizeLast=0;collapsible=1;marginBottom=0;whiteSpace=wrap;html=1;" parent="WIyWlLk6GJQsqaUBKTNV-1" vertex="1">
          <mxGeometry x="90" y="210" width="190" height="78" as="geometry" />
        </mxCell>
        <mxCell id="2b8GEMpb_hgOxrl0ff7X-6" value="+ ReloadTime: Double&lt;br&gt;+ ShieldRenewalTime: Double" style="text;strokeColor=none;fillColor=none;align=left;verticalAlign=top;spacingLeft=4;spacingRight=4;overflow=hidden;rotatable=0;points=[[0,0.5],[1,0.5]];portConstraint=eastwest;whiteSpace=wrap;html=1;" parent="2b8GEMpb_hgOxrl0ff7X-5" vertex="1">
          <mxGeometry y="26" width="190" height="44" as="geometry" />
        </mxCell>
        <mxCell id="2b8GEMpb_hgOxrl0ff7X-7" value="" style="line;strokeWidth=1;fillColor=none;align=left;verticalAlign=middle;spacingTop=-1;spacingLeft=3;spacingRight=3;rotatable=0;labelPosition=right;points=[];portConstraint=eastwest;strokeColor=inherit;" parent="2b8GEMpb_hgOxrl0ff7X-5" vertex="1">
          <mxGeometry y="70" width="190" height="8" as="geometry" />
        </mxCell>
        <mxCell id="2b8GEMpb_hgOxrl0ff7X-9" value="&lt;div&gt;ShipCannon&lt;/div&gt;" style="swimlane;fontStyle=1;align=center;verticalAlign=top;childLayout=stackLayout;horizontal=1;startSize=26;horizontalStack=0;resizeParent=1;resizeParentMax=0;resizeLast=0;collapsible=1;marginBottom=0;whiteSpace=wrap;html=1;" parent="WIyWlLk6GJQsqaUBKTNV-1" vertex="1">
          <mxGeometry x="345" y="210" width="160" height="78" as="geometry" />
        </mxCell>
        <mxCell id="2b8GEMpb_hgOxrl0ff7X-10" value="&lt;div&gt;+ ShotDamage: Integer&lt;/div&gt;&lt;div&gt;+ ShotSpeed: Double&lt;br&gt;&lt;/div&gt;" style="text;strokeColor=none;fillColor=none;align=left;verticalAlign=top;spacingLeft=4;spacingRight=4;overflow=hidden;rotatable=0;points=[[0,0.5],[1,0.5]];portConstraint=eastwest;whiteSpace=wrap;html=1;" parent="2b8GEMpb_hgOxrl0ff7X-9" vertex="1">
          <mxGeometry y="26" width="160" height="44" as="geometry" />
        </mxCell>
        <mxCell id="2b8GEMpb_hgOxrl0ff7X-11" value="" style="line;strokeWidth=1;fillColor=none;align=left;verticalAlign=middle;spacingTop=-1;spacingLeft=3;spacingRight=3;rotatable=0;labelPosition=right;points=[];portConstraint=eastwest;strokeColor=inherit;" parent="2b8GEMpb_hgOxrl0ff7X-9" vertex="1">
          <mxGeometry y="70" width="160" height="8" as="geometry" />
        </mxCell>
        <mxCell id="2b8GEMpb_hgOxrl0ff7X-13" value="ShipShield" style="swimlane;fontStyle=1;align=center;verticalAlign=top;childLayout=stackLayout;horizontal=1;startSize=26;horizontalStack=0;resizeParent=1;resizeParentMax=0;resizeLast=0;collapsible=1;marginBottom=0;whiteSpace=wrap;html=1;" parent="WIyWlLk6GJQsqaUBKTNV-1" vertex="1">
          <mxGeometry x="590" y="210" width="200" height="88" as="geometry">
            <mxRectangle x="590" y="210" width="100" height="30" as="alternateBounds" />
          </mxGeometry>
        </mxCell>
        <mxCell id="2b8GEMpb_hgOxrl0ff7X-14" value="&lt;div&gt;+ HPBonus: Integer&lt;/div&gt;&lt;div&gt;+ PassiveBarrierHP: Integer&lt;/div&gt;&lt;div&gt;+ ActiveBarrierHP: Integer&lt;br&gt;&lt;/div&gt;" style="text;strokeColor=none;fillColor=none;align=left;verticalAlign=top;spacingLeft=4;spacingRight=4;overflow=hidden;rotatable=0;points=[[0,0.5],[1,0.5]];portConstraint=eastwest;whiteSpace=wrap;html=1;" parent="2b8GEMpb_hgOxrl0ff7X-13" vertex="1">
          <mxGeometry y="26" width="200" height="54" as="geometry" />
        </mxCell>
        <mxCell id="2b8GEMpb_hgOxrl0ff7X-15" value="" style="line;strokeWidth=1;fillColor=none;align=left;verticalAlign=middle;spacingTop=-1;spacingLeft=3;spacingRight=3;rotatable=0;labelPosition=right;points=[];portConstraint=eastwest;strokeColor=inherit;" parent="2b8GEMpb_hgOxrl0ff7X-13" vertex="1">
          <mxGeometry y="80" width="200" height="8" as="geometry" />
        </mxCell>
        <mxCell id="2b8GEMpb_hgOxrl0ff7X-17" value="" style="endArrow=block;dashed=1;endFill=0;endSize=12;html=1;rounded=0;exitX=0.5;exitY=0;exitDx=0;exitDy=0;entryX=0;entryY=1;entryDx=0;entryDy=0;" parent="WIyWlLk6GJQsqaUBKTNV-1" source="2b8GEMpb_hgOxrl0ff7X-5" target="2b8GEMpb_hgOxrl0ff7X-4" edge="1">
          <mxGeometry width="160" relative="1" as="geometry">
            <mxPoint x="220" y="200" as="sourcePoint" />
            <mxPoint x="380" y="200" as="targetPoint" />
          </mxGeometry>
        </mxCell>
        <mxCell id="2b8GEMpb_hgOxrl0ff7X-18" value="" style="endArrow=block;dashed=1;endFill=0;endSize=12;html=1;rounded=0;entryX=0.5;entryY=1;entryDx=0;entryDy=0;exitX=0.5;exitY=0;exitDx=0;exitDy=0;" parent="WIyWlLk6GJQsqaUBKTNV-1" source="2b8GEMpb_hgOxrl0ff7X-9" target="2b8GEMpb_hgOxrl0ff7X-4" edge="1">
          <mxGeometry width="160" relative="1" as="geometry">
            <mxPoint x="390" y="230" as="sourcePoint" />
            <mxPoint x="550" y="230" as="targetPoint" />
          </mxGeometry>
        </mxCell>
        <mxCell id="2b8GEMpb_hgOxrl0ff7X-19" value="" style="endArrow=block;dashed=1;endFill=0;endSize=12;html=1;rounded=0;exitX=0;exitY=0;exitDx=0;exitDy=0;entryX=1;entryY=1;entryDx=0;entryDy=0;" parent="WIyWlLk6GJQsqaUBKTNV-1" source="2b8GEMpb_hgOxrl0ff7X-13" target="2b8GEMpb_hgOxrl0ff7X-4" edge="1">
          <mxGeometry width="160" relative="1" as="geometry">
            <mxPoint x="580" y="170" as="sourcePoint" />
            <mxPoint x="740" y="170" as="targetPoint" />
          </mxGeometry>
        </mxCell>
        <mxCell id="2b8GEMpb_hgOxrl0ff7X-20" value="Ship" style="swimlane;fontStyle=1;align=center;verticalAlign=top;childLayout=stackLayout;horizontal=1;startSize=26;horizontalStack=0;resizeParent=1;resizeParentMax=0;resizeLast=0;collapsible=1;marginBottom=0;whiteSpace=wrap;html=1;" parent="WIyWlLk6GJQsqaUBKTNV-1" vertex="1">
          <mxGeometry x="330" y="360" width="195" height="180" as="geometry" />
        </mxCell>
        <mxCell id="2b8GEMpb_hgOxrl0ff7X-21" value="&lt;div&gt;+ crew: ShipCrew&lt;/div&gt;&lt;div&gt;+ cannon: ShipCannon&lt;/div&gt;&lt;div&gt;+ shield: ShipShield&lt;/div&gt;&lt;div&gt;+ baseHP: Integer&lt;/div&gt;" style="text;strokeColor=none;fillColor=none;align=left;verticalAlign=top;spacingLeft=4;spacingRight=4;overflow=hidden;rotatable=0;points=[[0,0.5],[1,0.5]];portConstraint=eastwest;whiteSpace=wrap;html=1;" parent="2b8GEMpb_hgOxrl0ff7X-20" vertex="1">
          <mxGeometry y="26" width="195" height="64" as="geometry" />
        </mxCell>
        <mxCell id="2b8GEMpb_hgOxrl0ff7X-22" value="" style="line;strokeWidth=1;fillColor=none;align=left;verticalAlign=middle;spacingTop=-1;spacingLeft=3;spacingRight=3;rotatable=0;labelPosition=right;points=[];portConstraint=eastwest;strokeColor=inherit;" parent="2b8GEMpb_hgOxrl0ff7X-20" vertex="1">
          <mxGeometry y="90" width="195" height="8" as="geometry" />
        </mxCell>
        <mxCell id="2b8GEMpb_hgOxrl0ff7X-95" value="&lt;div&gt;+ Shot(): void &lt;br&gt;&lt;/div&gt;&lt;div&gt;+ ActivateBarrier(): void&lt;/div&gt;&lt;div&gt;+ ReceiveDamage(Shot): void&lt;br&gt;&lt;/div&gt;" style="text;strokeColor=none;fillColor=none;align=left;verticalAlign=top;spacingLeft=4;spacingRight=4;overflow=hidden;rotatable=0;points=[[0,0.5],[1,0.5]];portConstraint=eastwest;whiteSpace=wrap;html=1;" parent="2b8GEMpb_hgOxrl0ff7X-20" vertex="1">
          <mxGeometry y="98" width="195" height="82" as="geometry" />
        </mxCell>
        <mxCell id="2b8GEMpb_hgOxrl0ff7X-24" value="" style="endArrow=diamondThin;endFill=1;endSize=24;html=1;rounded=0;exitX=1;exitY=0;exitDx=0;exitDy=0;entryX=0;entryY=1;entryDx=0;entryDy=0;" parent="WIyWlLk6GJQsqaUBKTNV-1" source="2b8GEMpb_hgOxrl0ff7X-20" target="2b8GEMpb_hgOxrl0ff7X-13" edge="1">
          <mxGeometry width="160" relative="1" as="geometry">
            <mxPoint x="430" y="370" as="sourcePoint" />
            <mxPoint x="590" y="370" as="targetPoint" />
          </mxGeometry>
        </mxCell>
        <mxCell id="2b8GEMpb_hgOxrl0ff7X-25" value="" style="endArrow=diamondThin;endFill=1;endSize=24;html=1;rounded=0;entryX=0.5;entryY=1;entryDx=0;entryDy=0;exitX=0.5;exitY=0;exitDx=0;exitDy=0;" parent="WIyWlLk6GJQsqaUBKTNV-1" source="2b8GEMpb_hgOxrl0ff7X-20" target="2b8GEMpb_hgOxrl0ff7X-9" edge="1">
          <mxGeometry width="160" relative="1" as="geometry">
            <mxPoint x="190" y="410" as="sourcePoint" />
            <mxPoint x="350" y="410" as="targetPoint" />
          </mxGeometry>
        </mxCell>
        <mxCell id="2b8GEMpb_hgOxrl0ff7X-26" value="" style="endArrow=diamondThin;endFill=1;endSize=24;html=1;rounded=0;entryX=1;entryY=1;entryDx=0;entryDy=0;exitX=0;exitY=0;exitDx=0;exitDy=0;" parent="WIyWlLk6GJQsqaUBKTNV-1" source="2b8GEMpb_hgOxrl0ff7X-20" target="2b8GEMpb_hgOxrl0ff7X-5" edge="1">
          <mxGeometry width="160" relative="1" as="geometry">
            <mxPoint x="150" y="380" as="sourcePoint" />
            <mxPoint x="310" y="380" as="targetPoint" />
          </mxGeometry>
        </mxCell>
        <mxCell id="2b8GEMpb_hgOxrl0ff7X-27" value="Game" style="swimlane;fontStyle=1;align=center;verticalAlign=top;childLayout=stackLayout;horizontal=1;startSize=26;horizontalStack=0;resizeParent=1;resizeParentMax=0;resizeLast=0;collapsible=1;marginBottom=0;whiteSpace=wrap;html=1;" parent="WIyWlLk6GJQsqaUBKTNV-1" vertex="1">
          <mxGeometry x="140" y="1033" width="235" height="130" as="geometry" />
        </mxCell>
        <mxCell id="2b8GEMpb_hgOxrl0ff7X-28" value="&lt;div&gt;+ gameType: GameMode&lt;/div&gt;&lt;div&gt;+ player: Player&lt;/div&gt;&lt;div&gt;+shotList: Shot[]&lt;br&gt;&lt;/div&gt;" style="text;strokeColor=none;fillColor=none;align=left;verticalAlign=top;spacingLeft=4;spacingRight=4;overflow=hidden;rotatable=0;points=[[0,0.5],[1,0.5]];portConstraint=eastwest;whiteSpace=wrap;html=1;" parent="2b8GEMpb_hgOxrl0ff7X-27" vertex="1">
          <mxGeometry y="26" width="235" height="54" as="geometry" />
        </mxCell>
        <mxCell id="2b8GEMpb_hgOxrl0ff7X-29" value="" style="line;strokeWidth=1;fillColor=none;align=left;verticalAlign=middle;spacingTop=-1;spacingLeft=3;spacingRight=3;rotatable=0;labelPosition=right;points=[];portConstraint=eastwest;strokeColor=inherit;" parent="2b8GEMpb_hgOxrl0ff7X-27" vertex="1">
          <mxGeometry y="80" width="235" height="8" as="geometry" />
        </mxCell>
        <mxCell id="2b8GEMpb_hgOxrl0ff7X-30" value="&lt;div&gt;+ Game(Player, GameMode): Constructor&lt;/div&gt;&lt;div&gt;+ EndGame(): void&lt;br&gt;&lt;/div&gt;" style="text;strokeColor=none;fillColor=none;align=left;verticalAlign=top;spacingLeft=4;spacingRight=4;overflow=hidden;rotatable=0;points=[[0,0.5],[1,0.5]];portConstraint=eastwest;whiteSpace=wrap;html=1;" parent="2b8GEMpb_hgOxrl0ff7X-27" vertex="1">
          <mxGeometry y="88" width="235" height="42" as="geometry" />
        </mxCell>
        <mxCell id="2b8GEMpb_hgOxrl0ff7X-43" value="Level" style="swimlane;fontStyle=1;align=center;verticalAlign=top;childLayout=stackLayout;horizontal=1;startSize=26;horizontalStack=0;resizeParent=1;resizeParentMax=0;resizeLast=0;collapsible=1;marginBottom=0;whiteSpace=wrap;html=1;" parent="WIyWlLk6GJQsqaUBKTNV-1" vertex="1">
          <mxGeometry x="-300" y="790" width="230" height="114" as="geometry" />
        </mxCell>
        <mxCell id="2b8GEMpb_hgOxrl0ff7X-44" value="&lt;div&gt;+ enemies: Ship[][]&lt;/div&gt;&lt;div&gt;+ lastStage: Integer&lt;/div&gt;&lt;div&gt;+ currentStage: Integer&lt;br&gt;&lt;/div&gt;" style="text;strokeColor=none;fillColor=none;align=left;verticalAlign=top;spacingLeft=4;spacingRight=4;overflow=hidden;rotatable=0;points=[[0,0.5],[1,0.5]];portConstraint=eastwest;whiteSpace=wrap;html=1;" parent="2b8GEMpb_hgOxrl0ff7X-43" vertex="1">
          <mxGeometry y="26" width="230" height="54" as="geometry" />
        </mxCell>
        <mxCell id="2b8GEMpb_hgOxrl0ff7X-45" value="" style="line;strokeWidth=1;fillColor=none;align=left;verticalAlign=middle;spacingTop=-1;spacingLeft=3;spacingRight=3;rotatable=0;labelPosition=right;points=[];portConstraint=eastwest;strokeColor=inherit;" parent="2b8GEMpb_hgOxrl0ff7X-43" vertex="1">
          <mxGeometry y="80" width="230" height="8" as="geometry" />
        </mxCell>
        <mxCell id="2b8GEMpb_hgOxrl0ff7X-46" value="&lt;div&gt;+ nextStage()&lt;/div&gt;" style="text;strokeColor=none;fillColor=none;align=left;verticalAlign=top;spacingLeft=4;spacingRight=4;overflow=hidden;rotatable=0;points=[[0,0.5],[1,0.5]];portConstraint=eastwest;whiteSpace=wrap;html=1;" parent="2b8GEMpb_hgOxrl0ff7X-43" vertex="1">
          <mxGeometry y="88" width="230" height="26" as="geometry" />
        </mxCell>
        <mxCell id="2b8GEMpb_hgOxrl0ff7X-47" value="SurviveMode" style="swimlane;fontStyle=1;align=center;verticalAlign=top;childLayout=stackLayout;horizontal=1;startSize=26;horizontalStack=0;resizeParent=1;resizeParentMax=0;resizeLast=0;collapsible=1;marginBottom=0;whiteSpace=wrap;html=1;" parent="WIyWlLk6GJQsqaUBKTNV-1" vertex="1">
          <mxGeometry x="-300" y="600" width="230" height="134" as="geometry" />
        </mxCell>
        <mxCell id="2b8GEMpb_hgOxrl0ff7X-48" value="&lt;div&gt;+ stage: Integer&lt;/div&gt;&lt;div&gt;+ enemies: Ship[]&lt;/div&gt;&lt;div&gt;+ additionalEnemiesPerLevel: double&lt;/div&gt;&lt;div&gt;+ levelBoostPerStage: double&lt;br&gt;&lt;/div&gt;" style="text;strokeColor=none;fillColor=none;align=left;verticalAlign=top;spacingLeft=4;spacingRight=4;overflow=hidden;rotatable=0;points=[[0,0.5],[1,0.5]];portConstraint=eastwest;whiteSpace=wrap;html=1;" parent="2b8GEMpb_hgOxrl0ff7X-47" vertex="1">
          <mxGeometry y="26" width="230" height="74" as="geometry" />
        </mxCell>
        <mxCell id="2b8GEMpb_hgOxrl0ff7X-49" value="" style="line;strokeWidth=1;fillColor=none;align=left;verticalAlign=middle;spacingTop=-1;spacingLeft=3;spacingRight=3;rotatable=0;labelPosition=right;points=[];portConstraint=eastwest;strokeColor=inherit;" parent="2b8GEMpb_hgOxrl0ff7X-47" vertex="1">
          <mxGeometry y="100" width="230" height="8" as="geometry" />
        </mxCell>
        <mxCell id="2b8GEMpb_hgOxrl0ff7X-50" value="+ nextStage()" style="text;strokeColor=none;fillColor=none;align=left;verticalAlign=top;spacingLeft=4;spacingRight=4;overflow=hidden;rotatable=0;points=[[0,0.5],[1,0.5]];portConstraint=eastwest;whiteSpace=wrap;html=1;" parent="2b8GEMpb_hgOxrl0ff7X-47" vertex="1">
          <mxGeometry y="108" width="230" height="26" as="geometry" />
        </mxCell>
        <mxCell id="2b8GEMpb_hgOxrl0ff7X-53" value="abstract GameMode" style="swimlane;fontStyle=1;align=center;verticalAlign=top;childLayout=stackLayout;horizontal=1;startSize=26;horizontalStack=0;resizeParent=1;resizeParentMax=0;resizeLast=0;collapsible=1;marginBottom=0;whiteSpace=wrap;html=1;" parent="WIyWlLk6GJQsqaUBKTNV-1" vertex="1">
          <mxGeometry x="24" y="585" width="160" height="140" as="geometry" />
        </mxCell>
        <mxCell id="2b8GEMpb_hgOxrl0ff7X-54" value="&lt;div&gt;+ level: Integer&lt;/div&gt;&lt;div&gt;+ experienceAward: Integer&lt;/div&gt;&lt;div&gt;+ moneyAward: Integer&lt;br&gt;&lt;/div&gt;" style="text;strokeColor=none;fillColor=none;align=left;verticalAlign=top;spacingLeft=4;spacingRight=4;overflow=hidden;rotatable=0;points=[[0,0.5],[1,0.5]];portConstraint=eastwest;whiteSpace=wrap;html=1;" parent="2b8GEMpb_hgOxrl0ff7X-53" vertex="1">
          <mxGeometry y="26" width="160" height="64" as="geometry" />
        </mxCell>
        <mxCell id="2b8GEMpb_hgOxrl0ff7X-55" value="" style="line;strokeWidth=1;fillColor=none;align=left;verticalAlign=middle;spacingTop=-1;spacingLeft=3;spacingRight=3;rotatable=0;labelPosition=right;points=[];portConstraint=eastwest;strokeColor=inherit;" parent="2b8GEMpb_hgOxrl0ff7X-53" vertex="1">
          <mxGeometry y="90" width="160" height="8" as="geometry" />
        </mxCell>
        <mxCell id="2b8GEMpb_hgOxrl0ff7X-56" value="&lt;div&gt;+ spawnEnemies(): void&lt;/div&gt;&lt;div&gt;+ endGame(): void&lt;br&gt;&lt;/div&gt;" style="text;strokeColor=none;fillColor=none;align=left;verticalAlign=top;spacingLeft=4;spacingRight=4;overflow=hidden;rotatable=0;points=[[0,0.5],[1,0.5]];portConstraint=eastwest;whiteSpace=wrap;html=1;" parent="2b8GEMpb_hgOxrl0ff7X-53" vertex="1">
          <mxGeometry y="98" width="160" height="42" as="geometry" />
        </mxCell>
        <mxCell id="2b8GEMpb_hgOxrl0ff7X-57" value="" style="endArrow=block;dashed=1;endFill=0;endSize=12;html=1;rounded=0;exitX=1;exitY=0;exitDx=0;exitDy=0;entryX=0;entryY=1;entryDx=0;entryDy=0;" parent="WIyWlLk6GJQsqaUBKTNV-1" source="2b8GEMpb_hgOxrl0ff7X-43" target="2b8GEMpb_hgOxrl0ff7X-53" edge="1">
          <mxGeometry width="160" relative="1" as="geometry">
            <mxPoint x="-140" y="610" as="sourcePoint" />
            <mxPoint x="20" y="610" as="targetPoint" />
          </mxGeometry>
        </mxCell>
        <mxCell id="2b8GEMpb_hgOxrl0ff7X-58" value="" style="endArrow=block;dashed=1;endFill=0;endSize=12;html=1;rounded=0;exitX=1;exitY=1;exitDx=0;exitDy=0;entryX=0;entryY=0;entryDx=0;entryDy=0;" parent="WIyWlLk6GJQsqaUBKTNV-1" source="2b8GEMpb_hgOxrl0ff7X-47" target="2b8GEMpb_hgOxrl0ff7X-53" edge="1">
          <mxGeometry width="160" relative="1" as="geometry">
            <mxPoint x="-130" y="600" as="sourcePoint" />
            <mxPoint x="20" y="580" as="targetPoint" />
          </mxGeometry>
        </mxCell>
        <mxCell id="2b8GEMpb_hgOxrl0ff7X-60" value="1" style="endArrow=open;html=1;endSize=12;startArrow=diamondThin;startSize=14;startFill=1;edgeStyle=orthogonalEdgeStyle;align=left;verticalAlign=bottom;rounded=0;exitX=0.5;exitY=0;exitDx=0;exitDy=0;" parent="WIyWlLk6GJQsqaUBKTNV-1" source="2b8GEMpb_hgOxrl0ff7X-27" edge="1">
          <mxGeometry x="-1" y="3" relative="1" as="geometry">
            <mxPoint x="610" y="860" as="sourcePoint" />
            <mxPoint x="260" y="730" as="targetPoint" />
          </mxGeometry>
        </mxCell>
        <mxCell id="2b8GEMpb_hgOxrl0ff7X-65" value="GameWindow" style="swimlane;fontStyle=1;align=center;verticalAlign=top;childLayout=stackLayout;horizontal=1;startSize=26;horizontalStack=0;resizeParent=1;resizeParentMax=0;resizeLast=0;collapsible=1;marginBottom=0;whiteSpace=wrap;html=1;" parent="WIyWlLk6GJQsqaUBKTNV-1" vertex="1">
          <mxGeometry x="480" y="785" width="160" height="130" as="geometry" />
        </mxCell>
        <mxCell id="2b8GEMpb_hgOxrl0ff7X-66" value="&lt;div&gt;+ game: Game&lt;/div&gt;&lt;div&gt;+ player: Player&lt;br&gt;&lt;/div&gt;" style="text;strokeColor=none;fillColor=none;align=left;verticalAlign=top;spacingLeft=4;spacingRight=4;overflow=hidden;rotatable=0;points=[[0,0.5],[1,0.5]];portConstraint=eastwest;whiteSpace=wrap;html=1;" parent="2b8GEMpb_hgOxrl0ff7X-65" vertex="1">
          <mxGeometry y="26" width="160" height="44" as="geometry" />
        </mxCell>
        <mxCell id="2b8GEMpb_hgOxrl0ff7X-67" value="" style="line;strokeWidth=1;fillColor=none;align=left;verticalAlign=middle;spacingTop=-1;spacingLeft=3;spacingRight=3;rotatable=0;labelPosition=right;points=[];portConstraint=eastwest;strokeColor=inherit;" parent="2b8GEMpb_hgOxrl0ff7X-65" vertex="1">
          <mxGeometry y="70" width="160" height="8" as="geometry" />
        </mxCell>
        <mxCell id="2b8GEMpb_hgOxrl0ff7X-68" value="&lt;div&gt;+ login(): void&lt;/div&gt;&lt;div&gt;+ run(): void&lt;br&gt;&lt;/div&gt;" style="text;strokeColor=none;fillColor=none;align=left;verticalAlign=top;spacingLeft=4;spacingRight=4;overflow=hidden;rotatable=0;points=[[0,0.5],[1,0.5]];portConstraint=eastwest;whiteSpace=wrap;html=1;" parent="2b8GEMpb_hgOxrl0ff7X-65" vertex="1">
          <mxGeometry y="78" width="160" height="52" as="geometry" />
        </mxCell>
        <mxCell id="2b8GEMpb_hgOxrl0ff7X-69" value="" style="endArrow=none;html=1;edgeStyle=orthogonalEdgeStyle;rounded=0;exitX=0;exitY=0.5;exitDx=0;exitDy=0;entryX=1;entryY=0;entryDx=0;entryDy=0;" parent="WIyWlLk6GJQsqaUBKTNV-1" source="2b8GEMpb_hgOxrl0ff7X-68" target="2b8GEMpb_hgOxrl0ff7X-27" edge="1">
          <mxGeometry relative="1" as="geometry">
            <mxPoint x="590" y="750" as="sourcePoint" />
            <mxPoint x="600" y="760" as="targetPoint" />
          </mxGeometry>
        </mxCell>
        <mxCell id="2b8GEMpb_hgOxrl0ff7X-70" value="parent" style="edgeLabel;resizable=0;html=1;align=left;verticalAlign=bottom;" parent="2b8GEMpb_hgOxrl0ff7X-69" connectable="0" vertex="1">
          <mxGeometry x="-1" relative="1" as="geometry" />
        </mxCell>
        <mxCell id="2b8GEMpb_hgOxrl0ff7X-71" value="child" style="edgeLabel;resizable=0;html=1;align=right;verticalAlign=bottom;" parent="2b8GEMpb_hgOxrl0ff7X-69" connectable="0" vertex="1">
          <mxGeometry x="1" relative="1" as="geometry" />
        </mxCell>
        <mxCell id="2b8GEMpb_hgOxrl0ff7X-72" value="Player" style="swimlane;fontStyle=1;align=center;verticalAlign=top;childLayout=stackLayout;horizontal=1;startSize=26;horizontalStack=0;resizeParent=1;resizeParentMax=0;resizeLast=0;collapsible=1;marginBottom=0;whiteSpace=wrap;html=1;" parent="WIyWlLk6GJQsqaUBKTNV-1" vertex="1">
          <mxGeometry x="920" y="390" width="200" height="210" as="geometry">
            <mxRectangle x="600" y="350" width="70" height="30" as="alternateBounds" />
          </mxGeometry>
        </mxCell>
        <mxCell id="2b8GEMpb_hgOxrl0ff7X-73" value="&lt;div&gt;+ level: Integer&lt;/div&gt;&lt;div&gt;+ normalModeLevel: Integer&lt;br&gt;&lt;/div&gt;&lt;div&gt;+ shipData: Ship&lt;br&gt;&lt;/div&gt;&lt;div&gt;+ experience: Double&lt;/div&gt;&lt;div&gt;+ money: Double&lt;/div&gt;&lt;div&gt;+ moneyMultiplier: Double&lt;br&gt;&lt;/div&gt;" style="text;strokeColor=none;fillColor=none;align=left;verticalAlign=top;spacingLeft=4;spacingRight=4;overflow=hidden;rotatable=0;points=[[0,0.5],[1,0.5]];portConstraint=eastwest;whiteSpace=wrap;html=1;" parent="2b8GEMpb_hgOxrl0ff7X-72" vertex="1">
          <mxGeometry y="26" width="200" height="94" as="geometry" />
        </mxCell>
        <mxCell id="2b8GEMpb_hgOxrl0ff7X-74" value="" style="line;strokeWidth=1;fillColor=none;align=left;verticalAlign=middle;spacingTop=-1;spacingLeft=3;spacingRight=3;rotatable=0;labelPosition=right;points=[];portConstraint=eastwest;strokeColor=inherit;" parent="2b8GEMpb_hgOxrl0ff7X-72" vertex="1">
          <mxGeometry y="120" width="200" height="8" as="geometry" />
        </mxCell>
        <mxCell id="2b8GEMpb_hgOxrl0ff7X-75" value="&lt;div&gt;+ upgradeCrew(): void&lt;/div&gt;&lt;div&gt;+ upgradeCannon(): void&lt;/div&gt;&lt;div&gt;+ upgradeCrew(): void&lt;/div&gt;&lt;div&gt;+ ReceiveExperience(Integer): void&lt;/div&gt;&lt;div&gt;+ createMyShip(): void&lt;br&gt;&lt;/div&gt;" style="text;strokeColor=none;fillColor=none;align=left;verticalAlign=top;spacingLeft=4;spacingRight=4;overflow=hidden;rotatable=0;points=[[0,0.5],[1,0.5]];portConstraint=eastwest;whiteSpace=wrap;html=1;" parent="2b8GEMpb_hgOxrl0ff7X-72" vertex="1">
          <mxGeometry y="128" width="200" height="82" as="geometry" />
        </mxCell>
        <mxCell id="2b8GEMpb_hgOxrl0ff7X-79" value="" style="endArrow=none;html=1;edgeStyle=orthogonalEdgeStyle;rounded=0;exitX=1;exitY=0.25;exitDx=0;exitDy=0;entryX=1;entryY=1;entryDx=0;entryDy=0;" parent="WIyWlLk6GJQsqaUBKTNV-1" source="2b8GEMpb_hgOxrl0ff7X-65" target="2b8GEMpb_hgOxrl0ff7X-72" edge="1">
          <mxGeometry relative="1" as="geometry">
            <mxPoint x="660" y="740" as="sourcePoint" />
            <mxPoint x="820" y="740" as="targetPoint" />
          </mxGeometry>
        </mxCell>
        <mxCell id="2b8GEMpb_hgOxrl0ff7X-80" value="parent" style="edgeLabel;resizable=0;html=1;align=left;verticalAlign=bottom;" parent="2b8GEMpb_hgOxrl0ff7X-79" connectable="0" vertex="1">
          <mxGeometry x="-1" relative="1" as="geometry" />
        </mxCell>
        <mxCell id="2b8GEMpb_hgOxrl0ff7X-81" value="child" style="edgeLabel;resizable=0;html=1;align=right;verticalAlign=bottom;" parent="2b8GEMpb_hgOxrl0ff7X-79" connectable="0" vertex="1">
          <mxGeometry x="1" relative="1" as="geometry" />
        </mxCell>
        <mxCell id="2b8GEMpb_hgOxrl0ff7X-82" value="LoginMenu" style="swimlane;fontStyle=1;align=center;verticalAlign=top;childLayout=stackLayout;horizontal=1;startSize=26;horizontalStack=0;resizeParent=1;resizeParentMax=0;resizeLast=0;collapsible=1;marginBottom=0;whiteSpace=wrap;html=1;" parent="WIyWlLk6GJQsqaUBKTNV-1" vertex="1">
          <mxGeometry x="760" y="835" width="190" height="80" as="geometry" />
        </mxCell>
        <mxCell id="2b8GEMpb_hgOxrl0ff7X-84" value="" style="line;strokeWidth=1;fillColor=none;align=left;verticalAlign=middle;spacingTop=-1;spacingLeft=3;spacingRight=3;rotatable=0;labelPosition=right;points=[];portConstraint=eastwest;strokeColor=inherit;" parent="2b8GEMpb_hgOxrl0ff7X-82" vertex="1">
          <mxGeometry y="26" width="190" height="8" as="geometry" />
        </mxCell>
        <mxCell id="2b8GEMpb_hgOxrl0ff7X-85" value="&lt;div&gt;+ run()&lt;/div&gt;&lt;div&gt;+ login(String, String): Player&lt;br&gt;&lt;/div&gt;" style="text;strokeColor=none;fillColor=none;align=left;verticalAlign=top;spacingLeft=4;spacingRight=4;overflow=hidden;rotatable=0;points=[[0,0.5],[1,0.5]];portConstraint=eastwest;whiteSpace=wrap;html=1;" parent="2b8GEMpb_hgOxrl0ff7X-82" vertex="1">
          <mxGeometry y="34" width="190" height="46" as="geometry" />
        </mxCell>
        <mxCell id="2b8GEMpb_hgOxrl0ff7X-88" value="&amp;lt;Singleton&amp;gt; DatabaseConnection" style="swimlane;fontStyle=1;align=center;verticalAlign=top;childLayout=stackLayout;horizontal=1;startSize=26;horizontalStack=0;resizeParent=1;resizeParentMax=0;resizeLast=0;collapsible=1;marginBottom=0;whiteSpace=wrap;html=1;" parent="WIyWlLk6GJQsqaUBKTNV-1" vertex="1">
          <mxGeometry x="1150" y="790" width="320" height="100" as="geometry" />
        </mxCell>
        <mxCell id="2b8GEMpb_hgOxrl0ff7X-89" value="+ connection: Connection (Framework connection class)" style="text;strokeColor=none;fillColor=none;align=left;verticalAlign=top;spacingLeft=4;spacingRight=4;overflow=hidden;rotatable=0;points=[[0,0.5],[1,0.5]];portConstraint=eastwest;whiteSpace=wrap;html=1;" parent="2b8GEMpb_hgOxrl0ff7X-88" vertex="1">
          <mxGeometry y="26" width="320" height="26" as="geometry" />
        </mxCell>
        <mxCell id="2b8GEMpb_hgOxrl0ff7X-90" value="" style="line;strokeWidth=1;fillColor=none;align=left;verticalAlign=middle;spacingTop=-1;spacingLeft=3;spacingRight=3;rotatable=0;labelPosition=right;points=[];portConstraint=eastwest;strokeColor=inherit;" parent="2b8GEMpb_hgOxrl0ff7X-88" vertex="1">
          <mxGeometry y="52" width="320" height="8" as="geometry" />
        </mxCell>
        <mxCell id="2b8GEMpb_hgOxrl0ff7X-91" value="&lt;div&gt;+ DatabaseConnection(String): Constructor&lt;/div&gt;&lt;div&gt;+ getInstance(): DatabaseConnection&lt;br&gt;&lt;/div&gt;" style="text;strokeColor=none;fillColor=none;align=left;verticalAlign=top;spacingLeft=4;spacingRight=4;overflow=hidden;rotatable=0;points=[[0,0.5],[1,0.5]];portConstraint=eastwest;whiteSpace=wrap;html=1;" parent="2b8GEMpb_hgOxrl0ff7X-88" vertex="1">
          <mxGeometry y="60" width="320" height="40" as="geometry" />
        </mxCell>
        <mxCell id="2b8GEMpb_hgOxrl0ff7X-92" value="Use" style="endArrow=open;endSize=12;dashed=1;html=1;rounded=0;exitX=1;exitY=1;exitDx=0;exitDy=0;entryX=-0.014;entryY=0.983;entryDx=0;entryDy=0;entryPerimeter=0;" parent="WIyWlLk6GJQsqaUBKTNV-1" source="2b8GEMpb_hgOxrl0ff7X-82" target="2b8GEMpb_hgOxrl0ff7X-91" edge="1">
          <mxGeometry width="160" relative="1" as="geometry">
            <mxPoint x="390" y="1010" as="sourcePoint" />
            <mxPoint x="550" y="1010" as="targetPoint" />
          </mxGeometry>
        </mxCell>
        <mxCell id="2b8GEMpb_hgOxrl0ff7X-106" value="&amp;lt;&amp;lt;Throws&amp;gt;&amp;gt;" style="edgeLabel;html=1;align=center;verticalAlign=middle;resizable=0;points=[];" parent="2b8GEMpb_hgOxrl0ff7X-92" vertex="1" connectable="0">
          <mxGeometry x="-0.3015" y="2" relative="1" as="geometry">
            <mxPoint x="8" y="-25" as="offset" />
          </mxGeometry>
        </mxCell>
        <mxCell id="2b8GEMpb_hgOxrl0ff7X-96" value="Shot" style="swimlane;fontStyle=1;align=center;verticalAlign=top;childLayout=stackLayout;horizontal=1;startSize=26;horizontalStack=0;resizeParent=1;resizeParentMax=0;resizeLast=0;collapsible=1;marginBottom=0;whiteSpace=wrap;html=1;" parent="WIyWlLk6GJQsqaUBKTNV-1" vertex="1">
          <mxGeometry x="-200" y="1033" width="160" height="114" as="geometry" />
        </mxCell>
        <mxCell id="2b8GEMpb_hgOxrl0ff7X-97" value="&lt;div&gt;+ flySpeed: double&lt;/div&gt;&lt;div&gt;+ damage: Integer&lt;br&gt;&lt;/div&gt;&lt;div&gt;+ owner: Ship&lt;br&gt;&lt;/div&gt;&lt;div&gt;&lt;br&gt;&lt;/div&gt;" style="text;strokeColor=none;fillColor=none;align=left;verticalAlign=top;spacingLeft=4;spacingRight=4;overflow=hidden;rotatable=0;points=[[0,0.5],[1,0.5]];portConstraint=eastwest;whiteSpace=wrap;html=1;" parent="2b8GEMpb_hgOxrl0ff7X-96" vertex="1">
          <mxGeometry y="26" width="160" height="54" as="geometry" />
        </mxCell>
        <mxCell id="2b8GEMpb_hgOxrl0ff7X-98" value="" style="line;strokeWidth=1;fillColor=none;align=left;verticalAlign=middle;spacingTop=-1;spacingLeft=3;spacingRight=3;rotatable=0;labelPosition=right;points=[];portConstraint=eastwest;strokeColor=inherit;" parent="2b8GEMpb_hgOxrl0ff7X-96" vertex="1">
          <mxGeometry y="80" width="160" height="8" as="geometry" />
        </mxCell>
        <mxCell id="2b8GEMpb_hgOxrl0ff7X-99" value="+ updatePosition(): void" style="text;strokeColor=none;fillColor=none;align=left;verticalAlign=top;spacingLeft=4;spacingRight=4;overflow=hidden;rotatable=0;points=[[0,0.5],[1,0.5]];portConstraint=eastwest;whiteSpace=wrap;html=1;" parent="2b8GEMpb_hgOxrl0ff7X-96" vertex="1">
          <mxGeometry y="88" width="160" height="26" as="geometry" />
        </mxCell>
        <mxCell id="2b8GEMpb_hgOxrl0ff7X-103" value="" style="endArrow=none;html=1;edgeStyle=orthogonalEdgeStyle;rounded=0;entryX=1.008;entryY=0.142;entryDx=0;entryDy=0;exitX=0;exitY=0.25;exitDx=0;exitDy=0;entryPerimeter=0;" parent="WIyWlLk6GJQsqaUBKTNV-1" source="2b8GEMpb_hgOxrl0ff7X-27" target="2b8GEMpb_hgOxrl0ff7X-96" edge="1">
          <mxGeometry relative="1" as="geometry">
            <mxPoint x="500" y="741" as="sourcePoint" />
            <mxPoint x="650" y="580" as="targetPoint" />
          </mxGeometry>
        </mxCell>
        <mxCell id="2b8GEMpb_hgOxrl0ff7X-104" value="parent" style="edgeLabel;resizable=0;html=1;align=left;verticalAlign=bottom;" parent="2b8GEMpb_hgOxrl0ff7X-103" connectable="0" vertex="1">
          <mxGeometry x="-1" relative="1" as="geometry" />
        </mxCell>
        <mxCell id="2b8GEMpb_hgOxrl0ff7X-105" value="child" style="edgeLabel;resizable=0;html=1;align=right;verticalAlign=bottom;" parent="2b8GEMpb_hgOxrl0ff7X-103" connectable="0" vertex="1">
          <mxGeometry x="1" relative="1" as="geometry" />
        </mxCell>
        <mxCell id="2b8GEMpb_hgOxrl0ff7X-111" value="&amp;lt;Signleton&amp;gt; PlayerHandler" style="swimlane;fontStyle=1;align=center;verticalAlign=top;childLayout=stackLayout;horizontal=1;startSize=26;horizontalStack=0;resizeParent=1;resizeParentMax=0;resizeLast=0;collapsible=1;marginBottom=0;whiteSpace=wrap;html=1;" parent="WIyWlLk6GJQsqaUBKTNV-1" vertex="1">
          <mxGeometry x="1260" y="1010" width="200" height="90" as="geometry" />
        </mxCell>
        <mxCell id="2b8GEMpb_hgOxrl0ff7X-113" value="" style="line;strokeWidth=1;fillColor=none;align=left;verticalAlign=middle;spacingTop=-1;spacingLeft=3;spacingRight=3;rotatable=0;labelPosition=right;points=[];portConstraint=eastwest;strokeColor=inherit;" parent="2b8GEMpb_hgOxrl0ff7X-111" vertex="1">
          <mxGeometry y="26" width="200" height="8" as="geometry" />
        </mxCell>
        <mxCell id="2b8GEMpb_hgOxrl0ff7X-114" value="&lt;div&gt;+ validateLogin(String, String): Player&lt;/div&gt;&lt;div&gt;+ savePlayerData(Player): void&lt;/div&gt;&lt;div&gt;+ getInstance(): PlayerHandler&lt;br&gt;&lt;/div&gt;" style="text;strokeColor=none;fillColor=none;align=left;verticalAlign=top;spacingLeft=4;spacingRight=4;overflow=hidden;rotatable=0;points=[[0,0.5],[1,0.5]];portConstraint=eastwest;whiteSpace=wrap;html=1;" parent="2b8GEMpb_hgOxrl0ff7X-111" vertex="1">
          <mxGeometry y="34" width="200" height="56" as="geometry" />
        </mxCell>
        <mxCell id="2b8GEMpb_hgOxrl0ff7X-115" value="&lt;div&gt;&amp;lt;Singleton&amp;gt; LevelsHandler&lt;/div&gt;" style="swimlane;fontStyle=1;align=center;verticalAlign=top;childLayout=stackLayout;horizontal=1;startSize=26;horizontalStack=0;resizeParent=1;resizeParentMax=0;resizeLast=0;collapsible=1;marginBottom=0;whiteSpace=wrap;html=1;" parent="WIyWlLk6GJQsqaUBKTNV-1" vertex="1">
          <mxGeometry x="1220" y="520" width="299" height="100" as="geometry" />
        </mxCell>
        <mxCell id="2b8GEMpb_hgOxrl0ff7X-117" value="" style="line;strokeWidth=1;fillColor=none;align=left;verticalAlign=middle;spacingTop=-1;spacingLeft=3;spacingRight=3;rotatable=0;labelPosition=right;points=[];portConstraint=eastwest;strokeColor=inherit;" parent="2b8GEMpb_hgOxrl0ff7X-115" vertex="1">
          <mxGeometry y="26" width="299" height="8" as="geometry" />
        </mxCell>
        <mxCell id="2b8GEMpb_hgOxrl0ff7X-118" value="&lt;div&gt;+ getNextNormalMode(Player): GameMode&lt;/div&gt;&lt;div&gt;+ getNextSurvivalMode(Player): GameMode&lt;br&gt;&lt;/div&gt;&lt;div&gt;+ updatePlayerNormalMode(Player, Integer): void&lt;/div&gt;&lt;div&gt;+ getInstance(): LevelHandler&lt;br&gt;&lt;/div&gt;" style="text;strokeColor=none;fillColor=none;align=left;verticalAlign=top;spacingLeft=4;spacingRight=4;overflow=hidden;rotatable=0;points=[[0,0.5],[1,0.5]];portConstraint=eastwest;whiteSpace=wrap;html=1;" parent="2b8GEMpb_hgOxrl0ff7X-115" vertex="1">
          <mxGeometry y="34" width="299" height="66" as="geometry" />
        </mxCell>
        <mxCell id="2b8GEMpb_hgOxrl0ff7X-119" value="" style="endArrow=diamondThin;endFill=1;endSize=24;html=1;rounded=0;exitX=0.75;exitY=1;exitDx=0;exitDy=0;entryX=0.75;entryY=0;entryDx=0;entryDy=0;" parent="WIyWlLk6GJQsqaUBKTNV-1" source="2b8GEMpb_hgOxrl0ff7X-88" target="2b8GEMpb_hgOxrl0ff7X-111" edge="1">
          <mxGeometry width="160" relative="1" as="geometry">
            <mxPoint x="90" y="916" as="sourcePoint" />
            <mxPoint x="250" y="916" as="targetPoint" />
          </mxGeometry>
        </mxCell>
        <mxCell id="2b8GEMpb_hgOxrl0ff7X-123" value="&amp;lt;&amp;lt;Throws&amp;gt;&amp;gt;" style="edgeLabel;html=1;align=center;verticalAlign=middle;resizable=0;points=[];" parent="2b8GEMpb_hgOxrl0ff7X-119" vertex="1" connectable="0">
          <mxGeometry x="0.0976" y="4" relative="1" as="geometry">
            <mxPoint as="offset" />
          </mxGeometry>
        </mxCell>
        <mxCell id="2b8GEMpb_hgOxrl0ff7X-120" value="" style="endArrow=diamondThin;endFill=1;endSize=24;html=1;rounded=0;entryX=0.512;entryY=1.013;entryDx=0;entryDy=0;exitX=0.5;exitY=0;exitDx=0;exitDy=0;entryPerimeter=0;" parent="WIyWlLk6GJQsqaUBKTNV-1" source="2b8GEMpb_hgOxrl0ff7X-88" target="2b8GEMpb_hgOxrl0ff7X-118" edge="1">
          <mxGeometry width="160" relative="1" as="geometry">
            <mxPoint x="1090" y="1180" as="sourcePoint" />
            <mxPoint x="610" y="1100" as="targetPoint" />
          </mxGeometry>
        </mxCell>
        <mxCell id="2b8GEMpb_hgOxrl0ff7X-122" value="&amp;lt;&amp;lt;Throws&amp;gt;&amp;gt;" style="edgeLabel;html=1;align=center;verticalAlign=middle;resizable=0;points=[];" parent="2b8GEMpb_hgOxrl0ff7X-120" vertex="1" connectable="0">
          <mxGeometry x="0.0736" y="1" relative="1" as="geometry">
            <mxPoint as="offset" />
          </mxGeometry>
        </mxCell>
        <mxCell id="kmlqKfXYXwxhx2XsG_9K-2" value="ShipFrame" style="shape=umlFrame;whiteSpace=wrap;html=1;pointerEvents=0;" parent="WIyWlLk6GJQsqaUBKTNV-1" vertex="1">
          <mxGeometry x="45" y="10" width="775" height="540" as="geometry" />
        </mxCell>
        <mxCell id="kmlqKfXYXwxhx2XsG_9K-3" value="ShipFactory" style="swimlane;fontStyle=1;align=center;verticalAlign=top;childLayout=stackLayout;horizontal=1;startSize=26;horizontalStack=0;resizeParent=1;resizeParentMax=0;resizeLast=0;collapsible=1;marginBottom=0;whiteSpace=wrap;html=1;" parent="WIyWlLk6GJQsqaUBKTNV-1" vertex="1">
          <mxGeometry x="600" y="586" width="230" height="110" as="geometry" />
        </mxCell>
        <mxCell id="kmlqKfXYXwxhx2XsG_9K-4" value="+ shipId: Integer" style="text;strokeColor=none;fillColor=none;align=left;verticalAlign=top;spacingLeft=4;spacingRight=4;overflow=hidden;rotatable=0;points=[[0,0.5],[1,0.5]];portConstraint=eastwest;whiteSpace=wrap;html=1;" parent="kmlqKfXYXwxhx2XsG_9K-3" vertex="1">
          <mxGeometry y="26" width="230" height="26" as="geometry" />
        </mxCell>
        <mxCell id="kmlqKfXYXwxhx2XsG_9K-5" value="" style="line;strokeWidth=1;fillColor=none;align=left;verticalAlign=middle;spacingTop=-1;spacingLeft=3;spacingRight=3;rotatable=0;labelPosition=right;points=[];portConstraint=eastwest;strokeColor=inherit;" parent="kmlqKfXYXwxhx2XsG_9K-3" vertex="1">
          <mxGeometry y="52" width="230" height="8" as="geometry" />
        </mxCell>
        <mxCell id="kmlqKfXYXwxhx2XsG_9K-6" value="&lt;div&gt;+ createPlayerShip(Ship): Ship&lt;/div&gt;&lt;div&gt;+ createShip(Integer): Ship&lt;br&gt;&lt;/div&gt;" style="text;strokeColor=none;fillColor=none;align=left;verticalAlign=top;spacingLeft=4;spacingRight=4;overflow=hidden;rotatable=0;points=[[0,0.5],[1,0.5]];portConstraint=eastwest;whiteSpace=wrap;html=1;" parent="kmlqKfXYXwxhx2XsG_9K-3" vertex="1">
          <mxGeometry y="60" width="230" height="50" as="geometry" />
        </mxCell>
        <mxCell id="kmlqKfXYXwxhx2XsG_9K-7" value="" style="endArrow=classic;html=1;rounded=0;entryX=0.813;entryY=1.001;entryDx=0;entryDy=0;entryPerimeter=0;exitX=0.5;exitY=0;exitDx=0;exitDy=0;" parent="WIyWlLk6GJQsqaUBKTNV-1" source="kmlqKfXYXwxhx2XsG_9K-3" target="kmlqKfXYXwxhx2XsG_9K-2" edge="1">
          <mxGeometry width="50" height="50" relative="1" as="geometry">
            <mxPoint x="710" y="790" as="sourcePoint" />
            <mxPoint x="760" y="740" as="targetPoint" />
          </mxGeometry>
        </mxCell>
        <mxCell id="kmlqKfXYXwxhx2XsG_9K-8" value="Creates" style="edgeLabel;html=1;align=center;verticalAlign=middle;resizable=0;points=[];" parent="kmlqKfXYXwxhx2XsG_9K-7" vertex="1" connectable="0">
          <mxGeometry x="-0.1637" y="-3" relative="1" as="geometry">
            <mxPoint as="offset" />
          </mxGeometry>
        </mxCell>
        <mxCell id="kmlqKfXYXwxhx2XsG_9K-12" value="" style="endArrow=none;html=1;edgeStyle=orthogonalEdgeStyle;rounded=0;exitX=0;exitY=0.5;exitDx=0;exitDy=0;entryX=1;entryY=0;entryDx=0;entryDy=0;" parent="WIyWlLk6GJQsqaUBKTNV-1" source="2b8GEMpb_hgOxrl0ff7X-75" target="kmlqKfXYXwxhx2XsG_9K-3" edge="1">
          <mxGeometry relative="1" as="geometry">
            <mxPoint x="840" y="550" as="sourcePoint" />
            <mxPoint x="1000" y="550" as="targetPoint" />
          </mxGeometry>
        </mxCell>
        <mxCell id="kmlqKfXYXwxhx2XsG_9K-13" value="parent" style="edgeLabel;resizable=0;html=1;align=left;verticalAlign=bottom;" parent="kmlqKfXYXwxhx2XsG_9K-12" connectable="0" vertex="1">
          <mxGeometry x="-1" relative="1" as="geometry" />
        </mxCell>
        <mxCell id="kmlqKfXYXwxhx2XsG_9K-14" value="child" style="edgeLabel;resizable=0;html=1;align=right;verticalAlign=bottom;" parent="kmlqKfXYXwxhx2XsG_9K-12" connectable="0" vertex="1">
          <mxGeometry x="1" relative="1" as="geometry" />
        </mxCell>
        <mxCell id="kmlqKfXYXwxhx2XsG_9K-15" value="Asks" style="edgeLabel;html=1;align=center;verticalAlign=middle;resizable=0;points=[];" parent="kmlqKfXYXwxhx2XsG_9K-12" vertex="1" connectable="0">
          <mxGeometry x="-0.6329" y="-2" relative="1" as="geometry">
            <mxPoint as="offset" />
          </mxGeometry>
        </mxCell>
        <mxCell id="kmlqKfXYXwxhx2XsG_9K-16" value="Use" style="endArrow=open;endSize=12;dashed=1;html=1;rounded=0;exitX=1;exitY=0.5;exitDx=0;exitDy=0;entryX=0;entryY=0;entryDx=0;entryDy=0;" parent="WIyWlLk6GJQsqaUBKTNV-1" source="2b8GEMpb_hgOxrl0ff7X-68" target="2b8GEMpb_hgOxrl0ff7X-82" edge="1">
          <mxGeometry width="160" relative="1" as="geometry">
            <mxPoint x="570" y="1020" as="sourcePoint" />
            <mxPoint x="730" y="1020" as="targetPoint" />
          </mxGeometry>
        </mxCell>
        <mxCell id="kmlqKfXYXwxhx2XsG_9K-19" value="Use" style="endArrow=open;endSize=12;dashed=1;html=1;rounded=0;exitX=1;exitY=0;exitDx=0;exitDy=0;" parent="WIyWlLk6GJQsqaUBKTNV-1" source="2b8GEMpb_hgOxrl0ff7X-27" edge="1">
          <mxGeometry width="160" relative="1" as="geometry">
            <mxPoint x="350" y="1070" as="sourcePoint" />
            <mxPoint x="1260" y="890" as="targetPoint" />
          </mxGeometry>
        </mxCell>
        <mxCell id="2fCoUInDt9eswFPEZUzL-8" style="edgeStyle=orthogonalEdgeStyle;rounded=0;orthogonalLoop=1;jettySize=auto;html=1;exitX=1;exitY=0;exitDx=0;exitDy=0;entryX=0;entryY=0;entryDx=0;entryDy=0;" edge="1" parent="WIyWlLk6GJQsqaUBKTNV-1" source="2fCoUInDt9eswFPEZUzL-0" target="kmlqKfXYXwxhx2XsG_9K-3">
          <mxGeometry relative="1" as="geometry">
            <mxPoint x="590" y="586" as="targetPoint" />
            <Array as="points">
              <mxPoint x="558" y="586" />
              <mxPoint x="558" y="587" />
            </Array>
          </mxGeometry>
        </mxCell>
        <mxCell id="2fCoUInDt9eswFPEZUzL-9" value="Asks" style="edgeLabel;html=1;align=center;verticalAlign=middle;resizable=0;points=[];" vertex="1" connectable="0" parent="2fCoUInDt9eswFPEZUzL-8">
          <mxGeometry x="-0.0797" y="-1" relative="1" as="geometry">
            <mxPoint as="offset" />
          </mxGeometry>
        </mxCell>
        <mxCell id="2fCoUInDt9eswFPEZUzL-0" value="GameModeFactory" style="swimlane;fontStyle=1;align=center;verticalAlign=top;childLayout=stackLayout;horizontal=1;startSize=26;horizontalStack=0;resizeParent=1;resizeParentMax=0;resizeLast=0;collapsible=1;marginBottom=0;whiteSpace=wrap;html=1;" vertex="1" parent="WIyWlLk6GJQsqaUBKTNV-1">
          <mxGeometry x="245" y="586" width="280" height="140" as="geometry" />
        </mxCell>
        <mxCell id="2fCoUInDt9eswFPEZUzL-2" value="" style="line;strokeWidth=1;fillColor=none;align=left;verticalAlign=middle;spacingTop=-1;spacingLeft=3;spacingRight=3;rotatable=0;labelPosition=right;points=[];portConstraint=eastwest;strokeColor=inherit;" vertex="1" parent="2fCoUInDt9eswFPEZUzL-0">
          <mxGeometry y="26" width="280" height="8" as="geometry" />
        </mxCell>
        <mxCell id="2fCoUInDt9eswFPEZUzL-3" value="&lt;div&gt;+ createSurvivalMode(Integer): GameMode&lt;/div&gt;&lt;div&gt;+ createNormalMode(Integer, Ship[]): GameMode&lt;/div&gt;&lt;div&gt;+ getNormalMode(Integer): GameMode&lt;/div&gt;&lt;div&gt;+ getNextNormalMode(Player): GameMode&lt;br&gt;&lt;/div&gt;" style="text;strokeColor=none;fillColor=none;align=left;verticalAlign=top;spacingLeft=4;spacingRight=4;overflow=hidden;rotatable=0;points=[[0,0.5],[1,0.5]];portConstraint=eastwest;whiteSpace=wrap;html=1;" vertex="1" parent="2fCoUInDt9eswFPEZUzL-0">
          <mxGeometry y="34" width="280" height="106" as="geometry" />
        </mxCell>
        <mxCell id="2fCoUInDt9eswFPEZUzL-5" value="GameModeFrame" style="shape=umlFrame;whiteSpace=wrap;html=1;pointerEvents=0;" vertex="1" parent="WIyWlLk6GJQsqaUBKTNV-1">
          <mxGeometry x="-335" y="567" width="535" height="353" as="geometry" />
        </mxCell>
        <mxCell id="2fCoUInDt9eswFPEZUzL-6" style="edgeStyle=orthogonalEdgeStyle;rounded=0;orthogonalLoop=1;jettySize=auto;html=1;exitX=0;exitY=0;exitDx=0;exitDy=0;entryX=0.994;entryY=-0.003;entryDx=0;entryDy=0;entryPerimeter=0;" edge="1" parent="WIyWlLk6GJQsqaUBKTNV-1" source="2fCoUInDt9eswFPEZUzL-0" target="2fCoUInDt9eswFPEZUzL-5">
          <mxGeometry relative="1" as="geometry" />
        </mxCell>
        <mxCell id="2fCoUInDt9eswFPEZUzL-7" value="Creates" style="edgeLabel;html=1;align=center;verticalAlign=middle;resizable=0;points=[];" vertex="1" connectable="0" parent="2fCoUInDt9eswFPEZUzL-6">
          <mxGeometry x="0.2913" y="2" relative="1" as="geometry">
            <mxPoint as="offset" />
          </mxGeometry>
        </mxCell>
        <mxCell id="2fCoUInDt9eswFPEZUzL-10" value="Use" style="endArrow=open;endSize=12;dashed=1;html=1;rounded=0;exitX=1.018;exitY=0.849;exitDx=0;exitDy=0;exitPerimeter=0;entryX=0;entryY=0;entryDx=0;entryDy=0;" edge="1" parent="WIyWlLk6GJQsqaUBKTNV-1" source="2fCoUInDt9eswFPEZUzL-3" target="2b8GEMpb_hgOxrl0ff7X-88">
          <mxGeometry width="160" relative="1" as="geometry">
            <mxPoint x="820" y="770" as="sourcePoint" />
            <mxPoint x="980" y="770" as="targetPoint" />
          </mxGeometry>
        </mxCell>
      </root>
    </mxGraphModel>
  </diagram>
</mxfile>
